<?xml version="1.0" encoding="UTF-8"?>
<svg id="Layer_1" data-name="Layer 1" xmlns="http://www.w3.org/2000/svg" xmlns:xlink="http://www.w3.org/1999/xlink" viewBox="0 0 720 720">
  <defs>
    <style>
      .cls-1 {
        fill: url(#linear-gradient-2);
      }

      .cls-2 {
        fill: url(#linear-gradient-4);
      }

      .cls-3 {
        fill: url(#linear-gradient-3);
      }

      .cls-4 {
        fill: url(#linear-gradient);
      }
    </style>
    <linearGradient id="linear-gradient" x1="303.6" y1="363.6" x2="564.6" y2="363.6" gradientUnits="userSpaceOnUse">
      <stop offset="0" stop-color="#29adda"/>
      <stop offset="1" stop-color="#1c4278"/>
    </linearGradient>
    <linearGradient id="linear-gradient-2" x1="487.43" y1="325.75" x2="611.12" y2="325.75" xlink:href="#linear-gradient"/>
    <linearGradient id="linear-gradient-3" x1="108.87" y1="359.73" x2="489.79" y2="359.73" xlink:href="#linear-gradient"/>
    <linearGradient id="linear-gradient-4" x1="0" y1="360" x2="720" y2="360" xlink:href="#linear-gradient"/>
  </defs>
  <path class="cls-4" d="M507.96,328.95c-19.29-12.81-36.51-11.49-38.77-40.04-2.7-34.15,2.12-71.77.02-106.29.09-11.98,15.71-1.92,20.46-9.24,4.55-7.02-2.05-10.25-8.4-10.77-29.65-2.46-62.6,1.97-92.62,0-7.21-1.27-11.73,8.45-5.74,12.7,4.87,3.46,17.45-2.64,18.9,5.09l-.26,115.04c-1.33,7.15-3.93,13.08-9.44,17.98-11.34,10.08-36.8,22.39-50.81,30.86-6.45,3.91-14.5,7.78-20.48,12.07-.96.69-7.02,5.32-6.38,6.21l128.47,74.86c8.99,7.66.95,22.68-10.69,16.4l-122.86-71.32-5.76-1.67v67.97c0,12.81,8.52,36.7,14.09,48.8.71,1.55,3.29,4.73,3.7,5.51.53,1,12.74,14.89,14.75,17.1,47.76,52.61,124.24,61.03,180.45,15.94,55.83-44.79,64.56-129.01,17.74-183.88-5.93-6.95-18.73-18.24-26.38-23.31ZM377.34,383.12c-1.63-.17-25.9-14.28-28.44-16.19-1.3-.98-2.33-1.21-1.89-3.24,17.4-3.52,34.49.68,50.25,8-3.34,2.64-16.68,11.75-19.92,11.42ZM546.78,455.51c-2.71,38.16-44.09,79.3-79.59,89.47-86.75,24.85-162.86-51.77-145.3-137.9,1.72-1.77,31.55,18.25,36.36,19.6,1.78,2.83-1.03,40.08.45,48.15.58,3.15.67,3.39,5.4,7.47,1.09.94,3.59,1.31,4.17,1.37.81.08,8.12-3.01,8.9-3.59,5.54-4.12,1.71-30.88,4.12-38.73,4.33,2.87,9.66,4.67,14.06,7.06,9.41,5.11,28.49,19.33,37.89,20.36,14.38,1.56,25.92-6.92,26.86-21.71,8.2,1.74,15.59,5.53,23.73,7.68,18.43,4.87,37.49,5.67,55.97.65,3.49-.95,7.37-5.35,6.99.12ZM544.63,410.52c2.47-1.74,5.22,17.84,4.31,20.9-1.36,4.56-16.51,10.16-21.19,10.79-36.64,4.96-66.68-11.84-96.99-29.21-8.26-4.73-20.97-11.08-28.19-16.35-.94-.68-2.26-1.13-1.88-2.68.26-1.04,16.95-10.79,18.67-10.62,2.14.21,31.01,19.79,36.53,22.8,23.95,13.06,69.7,33.53,88.73,4.38Z"/>
  <path class="cls-1" d="M556.49,203.88c-14.09-17.79-31.21-34.73-50.69-46.39,8.58,15.81-1.37,33.36-18.37,36.69l.35,97.84c1.88,11.17,10.83,10.9,18.76,15.5,17.2,9.97,26.6,18.65,39.21,33.32,33.74,39.25,44.26,82.15,31.66,132.75-1.72,6.9-5.2,13.47-6.52,20.31,1.14,1.52,10.13-14.63,10.86-15.97,31.55-57.49,38.05-134.1,17.68-196.5-8.15-24.98-26.61-56.92-42.95-77.56Z"/>
  <path class="cls-3" d="M311.57,517.35l-6.82-12.03v30.27c0,5.27-11.8,10.17-17.1,5.68-.62-.53-3.46-5.34-3.46-5.68v-55.4c-15.05,7.18-28.43,17.89-43.07,26.03-13.62,3.44-19.23-12.19-8.25-19.67l51.32-32.06v-73.68c-2.47-.27-4.47.93-6.51,2.06-9.2,5.11-19.29,12.64-28.55,18.28-8.19,4.99-16.7,9.84-25.3,14.11l-.43,66.4c-2.13,6.31-9.03,9.52-15.04,6.37-.89-.47-5.28-4.63-5.28-4.99v-53.12c-1.35-.26-2.19.16-3.37.63-11.76,4.67-29.97,21.07-41.14,23.96-11.86,3.06-18.07-7.34-10.89-16.59l45.09-26.84-45.28-27.24c-7.74-8.07,1.42-21.65,11.87-17,18.2,10.14,35.43,22.8,54.47,31.09l61.2-36.52-61.3-36.32c-2.04-.17-6.39,3.41-8.7,4.59l-6.8,5.16c-1.51,1.58-35.3,21.44-37.72,22.25-12.18,4.05-19.78-4.63-13.43-15.71,13.74-10.16,31.06-17.18,44.94-26.77,1.06-.73.68-2.25.78-2.33-3.02.18-5.19-1.89-7.59-3.26-8.59-4.91-30.15-16.15-36.37-21.88-9.18-8.45-2.36-21.51,9.74-17.73l44.51,25.73v-55.4c0-1.54,6.85-6.36,9.59-6.24,7.74.32,10.36,6.16,11.01,13.05,1.79,19.1-1.41,40.95-.06,60.35l9.16,6.52,50.82,29.71c1.1-10.19.54-20.61.58-30.85.07-14.75.16-29.57-.24-44.32l-51.06-31.75c-11.08-7.33-5.87-23.42,8.19-19.61l43.1,27.14v-56.54c0-3.38,7.12-7.67,10.83-7.5,4.01.17,9.73,4.86,9.73,8.65v54.26c3.33-.56,6.55-3.07,9.47-4.81,6.43-3.83,31.37-21.64,35.93-22.41,8.54-1.44,14.03,7.7,10.83,15.5-3.23,7.89-47.13,29.08-55.66,36.85-.25,15.22-1.83,30.48-1.72,45.68.07,9.5,2.24,19.85,1.15,29.69l21.7-11.42c9.26-5.47,18.7-12.35,28.21-18.05,6.31-3.78,27.26-13.07,28.66-19.32l.31-100.15c-14.54-4.49-22.75-13.82-20.53-29.73.94-6.73,10.68-18.95,17.6-18.95h109.08l-24.72-13.55c-121.94-57.22-267.27-5.45-328.23,112.92-66.62,129.38-9.7,287.28,122.59,345.17,71.78,31.41,163.7,28.22,229.21-16.18-64.63,23.21-139.65,1.77-177.07-56.52Z"/>
  <path class="cls-2" d="M0,0v720h720V0H0ZM506.34,586.89c-99.94,64.47-230.29,55.94-320.98-20.99-90.69-76.93-120.37-204.15-73.08-313.27,45.35-104.64,151.54-169.5,265.33-162.06s210.64,85.57,241.97,195.22c32.68,114.35-13.31,236.62-113.24,301.09Z"/>
</svg>